<?xml version="1.0" encoding="UTF-8"?>
<svg id="a" data-name="Vrstva 1" xmlns="http://www.w3.org/2000/svg" width="2125" height="250" viewBox="0 0 2125 250">
  <g>
    <path d="M1154.44,108.43c-5.39,0-10.11-1.22-14.16-3.65-4.05-2.42-7.24-5.81-9.56-10.15-2.32-4.35-3.48-9.4-3.48-15.16s1.16-10.73,3.48-15.08c2.33-4.35,5.51-7.74,9.56-10.2,4.04-2.45,8.77-3.68,14.16-3.68s10.22,1.23,14.36,3.68c4.13,2.46,7.33,5.85,9.6,10.2,2.27,4.35,3.4,9.37,3.4,15.08s-1.14,10.81-3.4,15.16c-2.27,4.35-5.47,7.73-9.6,10.15-4.13,2.43-8.92,3.65-14.36,3.65ZM1154.44,101.31c3.89,0,7.27-.88,10.15-2.64,2.88-1.76,5.1-4.26,6.68-7.52,1.57-3.25,2.36-7.14,2.36-11.68s-.79-8.42-2.36-11.67c-1.58-3.25-3.8-5.75-6.68-7.48-2.88-1.73-6.27-2.6-10.15-2.6s-7.11.87-9.96,2.6c-2.85,1.74-5.08,4.23-6.67,7.48s-2.4,7.14-2.4,11.67.81,8.43,2.4,11.68c1.6,3.25,3.83,5.75,6.67,7.52,2.86,1.76,6.17,2.64,9.96,2.64Z" style="fill: #191a2e;"/>
    <path d="M1212.99,108.43c-2.19,0-4.17-.31-5.96-.92-1.78-.62-3.34-1.46-4.68-2.53-1.33-1.07-2.45-2.29-3.36-3.68l-.8,6.16h-7.2v-57.6h7.99v23.6c1.34-2.02,3.16-3.74,5.49-5.16,2.32-1.41,5.16-2.12,8.51-2.12,3.84,0,7.23.92,10.16,2.75,2.92,1.84,5.21,4.35,6.83,7.52,1.63,3.17,2.45,6.79,2.45,10.84s-.82,7.67-2.45,10.88c-1.62,3.2-3.91,5.7-6.83,7.52-2.93,1.81-6.33,2.73-10.16,2.73ZM1211.71,101.47c2.4,0,4.56-.6,6.47-1.81,1.92-1.2,3.41-2.84,4.48-4.91,1.07-2.08,1.61-4.57,1.61-7.44s-.54-5.31-1.61-7.45c-1.07-2.13-2.56-3.78-4.48-4.96-1.92-1.17-4.08-1.76-6.47-1.76-2.56,0-4.79.6-6.68,1.81-1.89,1.2-3.36,2.86-4.4,5-1.04,2.14-1.55,4.58-1.55,7.36s.51,5.36,1.55,7.44c1.04,2.07,2.51,3.71,4.4,4.91,1.89,1.21,4.12,1.81,6.68,1.81Z" style="fill: #191a2e;"/>
    <path d="M1260.42,108.43c-3.84,0-7.29-.89-10.35-2.65-3.07-1.75-5.46-4.24-7.16-7.44-1.71-3.19-2.56-6.82-2.56-10.88,0-4.26.85-7.98,2.56-11.16,1.7-3.17,4.09-5.65,7.16-7.44,3.06-1.78,6.52-2.67,10.35-2.67,4.96,0,9.08,1.28,12.36,3.84,3.28,2.56,5.37,6,6.28,10.32h-8.31c-.54-2.29-1.74-4.08-3.64-5.36-1.9-1.28-4.15-1.92-6.76-1.92-2.14,0-4.11.54-5.92,1.6-1.81,1.07-3.25,2.66-4.32,4.76-1.07,2.11-1.6,4.73-1.6,7.88,0,2.29.3,4.34.92,6.15.61,1.81,1.45,3.31,2.52,4.48,1.07,1.18,2.33,2.08,3.8,2.73,1.47.63,2.99.95,4.6.95,1.7,0,3.29-.29,4.76-.88,1.47-.59,2.68-1.42,3.64-2.52.96-1.09,1.63-2.41,2-3.97h8.31c-.9,4.22-3.01,7.63-6.32,10.24-3.31,2.61-7.41,3.92-12.32,3.92Z" style="fill: #191a2e;"/>
    <path d="M1288.42,107.47v-57.6h7.99v23.84c1.34-2.29,3.19-4.12,5.56-5.48,2.37-1.36,5-2.04,7.88-2.04,3.19,0,5.95.63,8.24,1.92,2.29,1.28,4.04,3.24,5.23,5.88,1.21,2.64,1.81,5.91,1.81,9.8v23.68h-7.92v-22.88c0-3.78-.78-6.67-2.35-8.64-1.58-1.97-3.94-2.96-7.08-2.96-2.14,0-4.05.52-5.76,1.56-1.7,1.03-3.06,2.53-4.08,4.48-1.01,1.94-1.52,4.3-1.52,7.07v21.36h-7.99Z" style="fill: #191a2e;"/>
    <path d="M1354.01,108.43c-3.84,0-7.28-.89-10.32-2.65-3.04-1.75-5.42-4.22-7.12-7.39-1.71-3.17-2.56-6.84-2.56-11s.87-7.98,2.6-11.16c1.74-3.17,4.12-5.64,7.16-7.39,3.04-1.76,6.45-2.64,10.24-2.64s7.25.88,10.23,2.64c2.99,1.75,5.36,4.21,7.13,7.36,1.75,3.14,2.64,6.85,2.64,11.12s-.89,7.91-2.64,11.07c-1.76,3.18-4.15,5.64-7.16,7.39-3.01,1.76-6.41,2.65-10.2,2.65ZM1353.93,101.55c2.13,0,4.09-.53,5.88-1.6,1.79-1.07,3.24-2.66,4.36-4.8,1.12-2.14,1.68-4.75,1.68-7.84s-.55-5.77-1.64-7.88c-1.09-2.11-2.52-3.7-4.28-4.76-1.76-1.06-3.71-1.6-5.84-1.6s-4.11.54-5.92,1.6c-1.81,1.07-3.26,2.66-4.36,4.76-1.09,2.11-1.64,4.73-1.64,7.88s.55,5.7,1.64,7.84c1.09,2.14,2.52,3.73,4.28,4.8,1.76,1.07,3.71,1.6,5.84,1.6Z" style="fill: #191a2e;"/>
    <path d="M1401.2,108.43c-3.78,0-7.15-.92-10.08-2.76-2.93-1.84-5.2-4.37-6.8-7.56-1.6-3.2-2.4-6.8-2.4-10.8s.8-7.75,2.4-10.92c1.61-3.18,3.88-5.67,6.84-7.48,2.96-1.81,6.34-2.72,10.12-2.72,3.25,0,6.07.62,8.44,1.87,2.38,1.26,4.23,3,5.56,5.24v-23.44h7.99v57.6h-7.2l-.72-6.32c-.85,1.28-1.94,2.46-3.24,3.56-1.31,1.09-2.86,1.99-4.64,2.68-1.79.69-3.88,1.04-6.28,1.04ZM1402.64,101.47c2.5,0,4.7-.6,6.6-1.81,1.89-1.2,3.36-2.85,4.4-4.96,1.04-2.11,1.56-4.57,1.56-7.39s-.52-5.31-1.56-7.45c-1.04-2.13-2.51-3.78-4.4-4.96-1.89-1.17-4.1-1.76-6.6-1.76s-4.64.59-6.56,1.76c-1.92,1.17-3.4,2.83-4.44,4.96-1.04,2.14-1.56,4.59-1.56,7.36s.52,5.37,1.56,7.48c1.03,2.11,2.52,3.76,4.44,4.96,1.92,1.21,4.11,1.81,6.56,1.81Z" style="fill: #191a2e;"/>
    <path d="M1434.23,107.47v-40.31h7.2l.48,6.88c1.28-2.46,3.08-4.37,5.41-5.76,2.32-1.39,5.03-2.07,8.12-2.07,3.25,0,6.02.63,8.31,1.92,2.29,1.28,4.07,3.21,5.32,5.8,1.26,2.59,1.88,5.82,1.88,9.72v23.83h-8v-23.03c0-3.73-.82-6.57-2.47-8.52-1.66-1.94-4.05-2.92-7.2-2.92-2.08,0-3.95.5-5.6,1.52-1.66,1.02-2.98,2.48-3.96,4.4-.99,1.92-1.48,4.27-1.48,7.04v21.52h-7.99Z" style="fill: #191a2e;"/>
    <path d="M1477.26,63.72l-.8-5.52,16.56-10.15,1.03,6.55-16.79,9.12ZM1481.19,107.47v-40.31h7.99v40.31h-7.99Z" style="fill: #191a2e;"/>
    <path d="M1533.97,108.43c-3.31,0-6.06-.56-8.24-1.68-2.19-1.12-3.82-2.62-4.89-4.52-1.07-1.89-1.6-3.96-1.6-6.2,0-2.61.69-4.86,2.08-6.76,1.38-1.89,3.36-3.34,5.92-4.36,2.56-1.02,5.65-1.52,9.28-1.52h10.4c0-2.34-.35-4.3-1.04-5.84-.69-1.54-1.72-2.72-3.08-3.52-1.36-.8-3.08-1.21-5.16-1.21-2.4,0-4.45.58-6.16,1.73-1.71,1.15-2.77,2.89-3.2,5.23h-7.99c.32-2.88,1.29-5.33,2.92-7.36,1.63-2.02,3.72-3.57,6.28-4.63,2.56-1.07,5.28-1.6,8.16-1.6,3.78,0,6.95.66,9.51,2s4.5,3.21,5.81,5.64c1.3,2.42,1.95,5.32,1.95,8.68v24.95h-6.95l-.64-6.8c-.54,1.07-1.22,2.07-2.04,3.04-.83.95-1.79,1.79-2.88,2.48-1.09.69-2.33,1.23-3.71,1.63-1.39.41-2.96.61-4.72.61ZM1535.49,101.95c1.7,0,3.25-.35,4.63-1.04,1.39-.69,2.58-1.65,3.57-2.87.98-1.23,1.74-2.59,2.27-4.09.54-1.48.82-3.06.89-4.71v-.16h-9.52c-2.35,0-4.23.27-5.64.8-1.41.54-2.44,1.3-3.08,2.28-.63.99-.95,2.12-.95,3.4s.3,2.4.92,3.36c.61.95,1.52,1.71,2.72,2.24s2.6.8,4.2.8Z" style="fill: #191a2e;"/>
    <path d="M1565.17,107.47v-57.6h7.99v57.6h-7.99ZM1590.53,107.47l-18.56-22.08,16.88-18.23h9.6l-19.92,21.28-.08-5.92,22.15,24.95h-10.08Z" style="fill: #191a2e;"/>
    <path d="M1619.97,108.43c-3.31,0-6.06-.56-8.24-1.68-2.19-1.12-3.82-2.62-4.89-4.52-1.07-1.89-1.6-3.96-1.6-6.2,0-2.61.69-4.86,2.08-6.76,1.38-1.89,3.36-3.34,5.92-4.36,2.56-1.02,5.65-1.52,9.28-1.52h10.4c0-2.34-.35-4.3-1.04-5.84-.69-1.54-1.72-2.72-3.08-3.52-1.36-.8-3.08-1.21-5.16-1.21-2.4,0-4.45.58-6.16,1.73-1.71,1.15-2.77,2.89-3.2,5.23h-7.99c.32-2.88,1.29-5.33,2.92-7.36,1.63-2.02,3.72-3.57,6.28-4.63,2.56-1.07,5.28-1.6,8.16-1.6,3.78,0,6.95.66,9.51,2,2.56,1.34,4.5,3.21,5.81,5.64,1.3,2.42,1.95,5.32,1.95,8.68v24.95h-6.95l-.64-6.8c-.54,1.07-1.22,2.07-2.04,3.04-.83.95-1.79,1.79-2.88,2.48-1.09.69-2.33,1.23-3.71,1.63-1.39.41-2.96.61-4.72.61ZM1621.48,101.95c1.7,0,3.25-.35,4.63-1.04,1.39-.69,2.58-1.65,3.57-2.87.98-1.23,1.74-2.59,2.27-4.09.54-1.48.82-3.06.89-4.71v-.16h-9.52c-2.35,0-4.23.27-5.64.8-1.41.54-2.44,1.3-3.08,2.28-.63.99-.95,2.12-.95,3.4s.3,2.4.92,3.36c.61.95,1.52,1.71,2.72,2.24,1.2.53,2.6.8,4.2.8Z" style="fill: #191a2e;"/>
    <path d="M1668.99,108.43c-3.78,0-7.15-.92-10.08-2.76-2.93-1.84-5.2-4.37-6.8-7.56-1.6-3.2-2.4-6.8-2.4-10.8s.8-7.75,2.4-10.92c1.61-3.18,3.88-5.67,6.84-7.48,2.96-1.81,6.34-2.72,10.12-2.72,3.25,0,6.07.62,8.44,1.87,2.38,1.26,4.23,3,5.56,5.24v-23.44h7.99v57.6h-7.2l-.72-6.32c-.85,1.28-1.94,2.46-3.24,3.56-1.31,1.09-2.86,1.99-4.64,2.68-1.79.69-3.88,1.04-6.28,1.04ZM1670.44,101.47c2.5,0,4.7-.6,6.6-1.81,1.89-1.2,3.36-2.85,4.4-4.96,1.04-2.11,1.56-4.57,1.56-7.39s-.52-5.31-1.56-7.45c-1.04-2.13-2.51-3.78-4.4-4.96s-4.1-1.76-6.6-1.76-4.64.59-6.56,1.76c-1.92,1.17-3.4,2.83-4.44,4.96-1.04,2.14-1.56,4.59-1.56,7.36s.52,5.37,1.56,7.48c1.03,2.11,2.52,3.76,4.44,4.96,1.92,1.21,4.11,1.81,6.56,1.81Z" style="fill: #191a2e;"/>
    <path d="M1720.26,108.43c-3.84,0-7.24-.89-10.2-2.65-2.96-1.75-5.28-4.21-6.96-7.35-1.68-3.15-2.52-6.83-2.52-11.04s.81-7.91,2.44-11.08c1.62-3.17,3.94-5.65,6.96-7.44,3.01-1.78,6.49-2.67,10.43-2.67s7.33.88,10.16,2.64c2.82,1.75,5,4.08,6.52,6.95,1.52,2.88,2.28,6.08,2.28,9.6v1.76c0,.64-.06,1.31-.16,2h-32.79v-5.61h25.03c-.16-3.3-1.28-5.92-3.36-7.84s-4.67-2.88-7.76-2.88c-2.19,0-4.18.49-6,1.48-1.81.99-3.25,2.43-4.32,4.32-1.07,1.89-1.6,4.28-1.6,7.15v2.25c0,2.99.53,5.49,1.6,7.52,1.07,2.02,2.49,3.58,4.28,4.63,1.79,1.07,3.78,1.61,5.96,1.61,2.56,0,4.68-.56,6.36-1.68,1.68-1.12,2.89-2.64,3.64-4.56h8c-.69,2.45-1.87,4.65-3.52,6.6-1.65,1.94-3.68,3.48-6.08,4.6-2.4,1.12-5.2,1.68-8.4,1.68Z" style="fill: #191a2e;"/>
    <path d="M1748.34,107.47v-40.31h7.2l.56,5.6c1.28-2.02,2.99-3.62,5.11-4.8,2.14-1.17,4.51-1.75,7.13-1.75,2.07,0,3.94.26,5.6.8,1.65.53,3.12,1.35,4.4,2.47,1.28,1.12,2.32,2.51,3.12,4.17,1.39-2.35,3.29-4.17,5.72-5.49,2.43-1.3,5.05-1.95,7.88-1.95,3.19,0,5.95.63,8.28,1.92,2.32,1.28,4.09,3.23,5.32,5.83,1.22,2.62,1.84,5.84,1.84,9.69v23.83h-7.92v-23.03c0-3.78-.76-6.64-2.28-8.56-1.52-1.93-3.71-2.88-6.6-2.88-1.97,0-3.73.5-5.28,1.52-1.54,1.02-2.76,2.49-3.64,4.44-.89,1.95-1.32,4.31-1.32,7.08v21.44h-8v-23.03c0-3.78-.77-6.64-2.32-8.56-1.55-1.93-3.77-2.88-6.64-2.88-1.92,0-3.63.5-5.12,1.52-1.49,1.02-2.71,2.49-3.64,4.44-.94,1.95-1.41,4.31-1.41,7.08v21.44h-7.99Z" style="fill: #191a2e;"/>
    <path d="M1825.45,59.56c-1.54,0-2.81-.49-3.8-1.44-.99-.96-1.48-2.19-1.48-3.68s.49-2.63,1.48-3.56c.99-.94,2.26-1.41,3.8-1.41s2.74.47,3.76,1.41c1.02.93,1.52,2.12,1.52,3.56s-.5,2.72-1.52,3.68c-1.02.95-2.27,1.44-3.76,1.44ZM1821.44,107.47v-40.31h8v40.31h-8Z" style="fill: #191a2e;"/>
    <path d="M1859.12,108.43c-3.84,0-7.24-.89-10.2-2.65-2.96-1.75-5.28-4.21-6.96-7.35-1.68-3.15-2.52-6.83-2.52-11.04s.81-7.91,2.44-11.08c1.62-3.17,3.94-5.65,6.96-7.44,3.01-1.78,6.49-2.67,10.43-2.67s7.33.88,10.16,2.64c2.82,1.75,5,4.08,6.52,6.95,1.52,2.88,2.28,6.08,2.28,9.6v1.76c0,.64-.06,1.31-.16,2h-32.79v-5.61h25.03c-.16-3.3-1.28-5.92-3.36-7.84-2.08-1.92-4.67-2.88-7.76-2.88-2.19,0-4.18.49-6,1.48-1.81.99-3.25,2.43-4.32,4.32-1.07,1.89-1.6,4.28-1.6,7.15v2.25c0,2.99.53,5.49,1.6,7.52,1.07,2.02,2.49,3.58,4.28,4.63,1.79,1.07,3.78,1.61,5.96,1.61,2.56,0,4.68-.56,6.36-1.68,1.68-1.12,2.89-2.64,3.64-4.56h8c-.69,2.45-1.87,4.65-3.52,6.6-1.65,1.94-3.68,3.48-6.08,4.6-2.4,1.12-5.2,1.68-8.4,1.68Z" style="fill: #191a2e;"/>
    <path d="M1921.03,108.43c-3.31,0-6.06-.56-8.24-1.68-2.19-1.12-3.82-2.62-4.89-4.52-1.07-1.89-1.6-3.96-1.6-6.2,0-2.61.69-4.86,2.08-6.76,1.38-1.89,3.36-3.34,5.92-4.36,2.56-1.02,5.65-1.52,9.28-1.52h10.4c0-2.34-.35-4.3-1.04-5.84-.69-1.54-1.72-2.72-3.08-3.52-1.36-.8-3.08-1.21-5.16-1.21-2.4,0-4.45.58-6.16,1.73-1.71,1.15-2.77,2.89-3.2,5.23h-7.99c.32-2.88,1.29-5.33,2.92-7.36,1.63-2.02,3.72-3.57,6.28-4.63,2.56-1.07,5.28-1.6,8.16-1.6,3.78,0,6.95.66,9.51,2,2.56,1.34,4.5,3.21,5.81,5.64,1.3,2.42,1.95,5.32,1.95,8.68v24.95h-6.95l-.64-6.8c-.54,1.07-1.22,2.07-2.04,3.04-.83.95-1.79,1.79-2.88,2.48-1.09.69-2.33,1.23-3.71,1.63-1.39.41-2.96.61-4.72.61ZM1922.55,101.95c1.7,0,3.25-.35,4.63-1.04,1.39-.69,2.58-1.65,3.57-2.87.98-1.23,1.74-2.59,2.27-4.09.54-1.48.82-3.06.89-4.71v-.16h-9.52c-2.35,0-4.23.27-5.64.8-1.41.54-2.44,1.3-3.08,2.28-.63.99-.95,2.12-.95,3.4s.3,2.4.92,3.36c.61.95,1.52,1.71,2.72,2.24s2.6.8,4.2.8Z" style="fill: #191a2e;"/>
    <path d="M1989.74,107.47l-20.88-55.99h8.64l16.95,47.67,17.12-47.67h8.48l-20.8,55.99h-9.51Z" style="fill: #191a2e;"/>
    <path d="M2050.61,108.43c-5.39,0-10.11-1.22-14.16-3.65-4.05-2.42-7.24-5.81-9.56-10.15-2.32-4.35-3.48-9.4-3.48-15.16s1.16-10.73,3.48-15.08c2.33-4.35,5.51-7.74,9.56-10.2,4.04-2.45,8.77-3.68,14.16-3.68s10.22,1.23,14.36,3.68c4.13,2.46,7.33,5.85,9.6,10.2,2.27,4.35,3.4,9.37,3.4,15.08s-1.14,10.81-3.4,15.16c-2.27,4.35-5.47,7.73-9.6,10.15-4.13,2.43-8.92,3.65-14.36,3.65ZM2050.61,101.31c3.89,0,7.27-.88,10.15-2.64,2.88-1.76,5.1-4.26,6.68-7.52,1.57-3.25,2.36-7.14,2.36-11.68s-.79-8.42-2.36-11.67c-1.58-3.25-3.8-5.75-6.68-7.48-2.88-1.73-6.27-2.6-10.15-2.6s-7.11.87-9.96,2.6c-2.85,1.74-5.08,4.23-6.67,7.48-1.6,3.25-2.4,7.14-2.4,11.67s.81,8.43,2.4,11.68c1.6,3.25,3.83,5.75,6.67,7.52,2.86,1.76,6.17,2.64,9.96,2.64Z" style="fill: #191a2e;"/>
    <path d="M2105.8,108.43c-4.05,0-7.63-.74-10.72-2.2-3.09-1.47-5.49-3.53-7.2-6.2-1.71-2.66-2.56-5.79-2.56-9.36h8.39c0,2.02.49,3.88,1.44,5.55.96,1.68,2.33,3.01,4.12,4,1.79.99,3.96,1.48,6.52,1.48,2.24,0,4.17-.36,5.8-1.12,1.63-.75,2.86-1.77,3.72-3.07.85-1.31,1.28-2.81,1.28-4.52,0-1.97-.44-3.58-1.32-4.84-.88-1.25-2.07-2.29-3.56-3.12-1.49-.82-3.25-1.57-5.28-2.24-2.03-.67-4.13-1.35-6.32-2.04-4.43-1.49-7.72-3.38-9.88-5.68-2.16-2.3-3.25-5.29-3.25-8.97,0-3.14.74-5.88,2.2-8.19,1.47-2.33,3.56-4.13,6.28-5.44,2.72-1.3,5.89-1.96,9.52-1.96s6.87.67,9.56,2c2.69,1.33,4.82,3.17,6.36,5.52,1.54,2.34,2.34,5.09,2.4,8.24h-8.48c0-1.44-.37-2.86-1.12-4.24-.75-1.38-1.87-2.52-3.36-3.39-1.49-.89-3.33-1.32-5.52-1.32-1.81-.05-3.44.23-4.88.88-1.44.64-2.57,1.57-3.39,2.8-.83,1.22-1.24,2.69-1.24,4.39s.37,3.08,1.12,4.12c.75,1.04,1.8,1.94,3.16,2.68,1.35.75,2.97,1.42,4.83,2.04,1.87.61,3.92,1.29,6.16,2.04,2.72.9,5.17,2.01,7.36,3.32,2.19,1.31,3.91,2.99,5.16,5.04,1.26,2.05,1.88,4.68,1.88,7.88,0,2.77-.72,5.36-2.16,7.76-1.44,2.4-3.58,4.36-6.4,5.88-2.83,1.52-6.38,2.28-10.64,2.28ZM2105,47.4l-11.2-6.56v-5.92l11.2,6.72,11.27-6.72v5.92l-11.27,6.56Z" style="fill: #191a2e;"/>
    <path d="M1145.88,214.12l-20.88-55.99h8.64l16.95,47.67,17.12-47.67h8.48l-20.8,55.99h-9.51Z" style="fill: #191a2e;"/>
    <path d="M1191.87,215.08c-3.31,0-6.06-.56-8.24-1.68-2.19-1.12-3.82-2.62-4.89-4.52-1.07-1.89-1.6-3.96-1.6-6.2,0-2.61.69-4.86,2.08-6.76,1.38-1.89,3.36-3.34,5.92-4.36,2.56-1.02,5.65-1.52,9.28-1.52h10.4c0-2.34-.35-4.3-1.04-5.84s-1.72-2.72-3.08-3.52c-1.36-.8-3.08-1.21-5.16-1.21-2.4,0-4.45.58-6.16,1.73-1.71,1.15-2.77,2.89-3.2,5.23h-7.99c.32-2.88,1.29-5.33,2.92-7.36,1.63-2.02,3.72-3.57,6.28-4.63,2.56-1.07,5.28-1.6,8.16-1.6,3.78,0,6.95.66,9.51,2,2.56,1.34,4.5,3.21,5.81,5.64,1.3,2.42,1.95,5.32,1.95,8.68v24.95h-6.95l-.64-6.8c-.54,1.07-1.22,2.07-2.04,3.04-.83.95-1.79,1.79-2.88,2.48-1.09.69-2.33,1.23-3.71,1.63-1.39.41-2.96.61-4.72.61ZM1193.39,208.6c1.7,0,3.25-.35,4.63-1.04,1.39-.69,2.58-1.65,3.57-2.87.98-1.23,1.74-2.59,2.27-4.09.54-1.48.82-3.06.89-4.71v-.16h-9.52c-2.35,0-4.23.27-5.64.8-1.41.54-2.44,1.3-3.08,2.28-.63.99-.95,2.12-.95,3.4s.3,2.4.92,3.36c.61.95,1.52,1.71,2.72,2.24,1.2.53,2.6.8,4.2.8Z" style="fill: #191a2e;"/>
    <path d="M1223.07,214.12v-57.6h7.99v57.6h-7.99Z" style="fill: #191a2e;"/>
    <path d="M1255.39,215.08c-3.31,0-6.06-.56-8.24-1.68-2.19-1.12-3.82-2.62-4.89-4.52-1.07-1.89-1.6-3.96-1.6-6.2,0-2.61.69-4.86,2.08-6.76,1.38-1.89,3.36-3.34,5.92-4.36,2.56-1.02,5.65-1.52,9.28-1.52h10.4c0-2.34-.35-4.3-1.04-5.84-.69-1.54-1.72-2.72-3.08-3.52-1.36-.8-3.08-1.21-5.16-1.21-2.4,0-4.45.58-6.16,1.73-1.71,1.15-2.77,2.89-3.2,5.23h-7.99c.32-2.88,1.29-5.33,2.92-7.36,1.63-2.02,3.72-3.57,6.28-4.63,2.56-1.07,5.28-1.6,8.16-1.6,3.78,0,6.95.66,9.51,2,2.56,1.34,4.5,3.21,5.81,5.64,1.3,2.42,1.95,5.32,1.95,8.68v24.95h-6.95l-.64-6.8c-.54,1.07-1.22,2.07-2.04,3.04-.83.95-1.79,1.79-2.88,2.48-1.09.69-2.33,1.23-3.71,1.63-1.39.41-2.96.61-4.72.61ZM1256.91,208.6c1.7,0,3.25-.35,4.63-1.04,1.39-.69,2.58-1.65,3.57-2.87.98-1.23,1.74-2.59,2.27-4.09.54-1.48.82-3.06.89-4.71v-.16h-9.52c-2.35,0-4.23.27-5.64.8-1.41.54-2.44,1.3-3.08,2.28-.63.99-.95,2.12-.95,3.4s.3,2.4.92,3.36c.61.95,1.52,1.71,2.72,2.24s2.6.8,4.2.8Z" style="fill: #191a2e;"/>
    <path d="M1302.26,215.08c-3.52,0-6.54-.58-9.08-1.73-2.53-1.15-4.53-2.72-6-4.71-1.47-2-2.36-4.37-2.68-7.08h8.08c.27,1.28.78,2.46,1.56,3.52.77,1.07,1.84,1.92,3.19,2.56,1.36.63,3,.95,4.92.95,1.71,0,3.13-.25,4.28-.76,1.15-.51,2-1.21,2.56-2.08.56-.88.84-1.82.84-2.84,0-1.49-.36-2.63-1.08-3.4-.72-.77-1.8-1.4-3.24-1.87-1.44-.49-3.18-.89-5.2-1.21-1.76-.37-3.52-.82-5.28-1.35-1.76-.54-3.32-1.24-4.68-2.13-1.36-.88-2.44-1.95-3.25-3.24-.8-1.28-1.2-2.88-1.2-4.8,0-2.29.6-4.36,1.81-6.2,1.2-1.84,2.94-3.28,5.23-4.32,2.29-1.04,4.99-1.55,8.08-1.55,4.48,0,8.08,1.05,10.8,3.16,2.73,2.1,4.35,5.13,4.88,9.08h-7.76c-.26-1.81-1.08-3.23-2.44-4.24-1.35-1.01-3.21-1.52-5.55-1.52s-4.05.47-5.28,1.4c-1.23.94-1.84,2.13-1.84,3.56,0,.96.36,1.81,1.08,2.56.72.75,1.74,1.39,3.08,1.93,1.33.53,2.99.98,4.96,1.35,2.83.54,5.36,1.22,7.6,2.04,2.24.83,4.04,2.01,5.4,3.56,1.35,1.55,2.04,3.76,2.04,6.64,0,2.56-.66,4.79-1.96,6.68-1.31,1.89-3.15,3.37-5.52,4.44-2.37,1.07-5.16,1.61-8.36,1.61ZM1301.46,169.08l-11.2-6.47v-6l11.2,6.72,11.27-6.72v6l-11.27,6.47Z" style="fill: #191a2e;"/>
    <path d="M1343.13,215.08c-3.52,0-6.54-.58-9.08-1.73-2.53-1.15-4.53-2.72-6-4.71-1.47-2-2.36-4.37-2.68-7.08h8.08c.27,1.28.78,2.46,1.56,3.52.77,1.07,1.84,1.92,3.19,2.56,1.36.63,3,.95,4.92.95,1.71,0,3.13-.25,4.28-.76,1.15-.51,2-1.21,2.56-2.08.56-.88.84-1.82.84-2.84,0-1.49-.36-2.63-1.08-3.4-.72-.77-1.8-1.4-3.24-1.87-1.44-.49-3.18-.89-5.2-1.21-1.76-.37-3.52-.82-5.28-1.35-1.76-.54-3.32-1.24-4.68-2.13-1.36-.88-2.44-1.95-3.25-3.24-.8-1.28-1.2-2.88-1.2-4.8,0-2.29.6-4.36,1.81-6.2,1.2-1.84,2.94-3.28,5.23-4.32,2.29-1.04,4.99-1.55,8.08-1.55,4.48,0,8.08,1.05,10.8,3.16,2.73,2.1,4.35,5.13,4.88,9.08h-7.76c-.26-1.81-1.08-3.23-2.44-4.24-1.35-1.01-3.21-1.52-5.55-1.52s-4.05.47-5.28,1.4c-1.23.94-1.84,2.13-1.84,3.56,0,.96.36,1.81,1.08,2.56s1.74,1.39,3.08,1.93c1.33.53,2.99.98,4.96,1.35,2.83.54,5.36,1.22,7.6,2.04,2.24.83,4.04,2.01,5.4,3.56,1.35,1.55,2.04,3.76,2.04,6.64,0,2.56-.66,4.79-1.96,6.68-1.31,1.89-3.15,3.37-5.52,4.44-2.37,1.07-5.16,1.61-8.36,1.61Z" style="fill: #191a2e;"/>
    <path d="M1368.32,214.12v-57.6h7.99v57.6h-7.99ZM1393.67,214.12l-18.56-22.08,16.88-18.23h9.6l-19.92,21.28-.08-5.92,22.15,24.95h-10.08Z" style="fill: #191a2e;"/>
    <path d="M1425.67,215.08c-3.84,0-7.24-.89-10.2-2.65-2.96-1.75-5.28-4.21-6.96-7.35-1.68-3.15-2.52-6.83-2.52-11.04s.81-7.91,2.44-11.08c1.62-3.17,3.94-5.65,6.96-7.44,3.01-1.78,6.49-2.67,10.43-2.67s7.33.88,10.16,2.64c2.82,1.75,5,4.08,6.52,6.95,1.52,2.88,2.28,6.08,2.28,9.6v1.76c0,.64-.06,1.31-.16,2h-32.79v-5.61h25.03c-.16-3.3-1.28-5.92-3.36-7.84s-4.67-2.88-7.76-2.88c-2.19,0-4.18.49-6,1.48-1.81.99-3.25,2.43-4.32,4.32-1.07,1.89-1.6,4.28-1.6,7.15v2.25c0,2.99.53,5.49,1.6,7.52,1.07,2.02,2.49,3.58,4.28,4.63,1.79,1.07,3.78,1.61,5.96,1.61,2.56,0,4.68-.56,6.36-1.68,1.68-1.12,2.89-2.64,3.64-4.56h8c-.69,2.45-1.87,4.65-3.52,6.6s-3.68,3.48-6.08,4.6c-2.4,1.12-5.2,1.68-8.4,1.68ZM1417.52,170.37l-.8-5.52,16.55-10.15,1.04,6.55-16.79,9.12Z" style="fill: #191a2e;"/>
    <path d="M1474.62,214.12v-55.99h9.43l18.88,37.75,18.96-37.75h9.52v55.99h-7.99v-41.99l-17.36,34.15h-6.16l-17.28-34v41.83h-7.99Z" style="fill: #191a2e;"/>
    <path d="M1560.85,215.08c-3.84,0-7.24-.89-10.2-2.65-2.96-1.75-5.28-4.21-6.96-7.35-1.68-3.15-2.52-6.83-2.52-11.04s.81-7.91,2.44-11.08c1.62-3.17,3.94-5.65,6.96-7.44,3.01-1.78,6.49-2.67,10.43-2.67s7.33.88,10.16,2.64c2.82,1.75,5,4.08,6.52,6.95,1.52,2.88,2.28,6.08,2.28,9.6v1.76c0,.64-.06,1.31-.16,2h-32.79v-5.61h25.03c-.16-3.3-1.28-5.92-3.36-7.84-2.08-1.92-4.67-2.88-7.76-2.88-2.19,0-4.18.49-6,1.48-1.81.99-3.25,2.43-4.32,4.32-1.07,1.89-1.6,4.28-1.6,7.15v2.25c0,2.99.53,5.49,1.6,7.52,1.07,2.02,2.49,3.58,4.28,4.63,1.79,1.07,3.78,1.61,5.96,1.61,2.56,0,4.68-.56,6.36-1.68,1.68-1.12,2.89-2.64,3.64-4.56h8c-.69,2.45-1.87,4.65-3.52,6.6-1.65,1.94-3.68,3.48-6.08,4.6-2.4,1.12-5.2,1.68-8.4,1.68Z" style="fill: #191a2e;"/>
    <path d="M1586.29,214.12v-6.47l21.67-27.2h-21.36v-6.64h30.48v6.48l-21.76,27.19h22.16v6.64h-31.19Z" style="fill: #191a2e;"/>
    <path d="M1630.92,166.21c-1.54,0-2.81-.49-3.8-1.44-.99-.96-1.48-2.19-1.48-3.68s.49-2.63,1.48-3.56c.99-.94,2.26-1.41,3.8-1.41s2.74.47,3.76,1.41c1.02.93,1.52,2.12,1.52,3.56s-.5,2.72-1.52,3.68c-1.02.95-2.27,1.44-3.76,1.44ZM1626.92,214.12v-40.31h8v40.31h-8Z" style="fill: #191a2e;"/>
    <path d="M1646.36,214.12v-40.31h7.2l.64,7.6c.95-1.81,2.14-3.35,3.56-4.6,1.41-1.26,3.12-2.23,5.12-2.92,2-.69,4.23-1.03,6.67-1.03v8.39h-2.87c-1.66,0-3.23.22-4.72.64-1.49.43-2.8,1.12-3.92,2.08-1.12.95-2.01,2.25-2.68,3.88-.66,1.62-1,3.69-1,6.2v20.07h-7.99ZM1659.15,169.08l-11.2-6.47v-6l11.2,6.72,11.28-6.72v6l-11.28,6.47Z" style="fill: #191a2e;"/>
    <path d="M1672.99,170.37l-.8-5.52,16.56-10.15,1.03,6.55-16.79,9.12ZM1676.91,214.12v-40.31h7.99v40.31h-7.99Z" style="fill: #191a2e;"/>
    <path d="M1714.5,215.08c-3.84,0-7.29-.89-10.35-2.65-3.07-1.75-5.46-4.24-7.16-7.44-1.71-3.19-2.56-6.82-2.56-10.88,0-4.26.85-7.98,2.56-11.16,1.7-3.17,4.09-5.65,7.16-7.44,3.06-1.78,6.52-2.67,10.35-2.67,4.96,0,9.08,1.28,12.36,3.84,3.28,2.56,5.37,6,6.28,10.32h-8.31c-.54-2.29-1.74-4.08-3.64-5.36-1.9-1.28-4.15-1.92-6.76-1.92-2.14,0-4.11.54-5.92,1.6-1.81,1.07-3.25,2.66-4.32,4.76-1.07,2.11-1.6,4.73-1.6,7.88,0,2.29.3,4.34.92,6.15.61,1.81,1.45,3.31,2.52,4.48,1.07,1.18,2.33,2.08,3.8,2.73,1.47.63,2.99.95,4.6.95,1.7,0,3.29-.29,4.76-.88,1.47-.59,2.68-1.42,3.64-2.52.96-1.09,1.63-2.41,2-3.97h8.31c-.9,4.22-3.01,7.63-6.32,10.24-3.31,2.61-7.41,3.92-12.32,3.92ZM1713.7,169.08l-11.2-6.47v-6l11.2,6.72,11.27-6.72v6l-11.27,6.47Z" style="fill: #191a2e;"/>
    <path d="M1738.58,170.37l-.8-5.52,16.56-10.15,1.03,6.55-16.79,9.12ZM1742.5,214.12v-40.31h7.99v40.31h-7.99Z" style="fill: #191a2e;"/>
  </g>
  <g>
    <polygon points="387.5 0 481.25 250 443.75 250 365.63 37.5 287.5 250 250 250 343.75 0 387.5 0" style="fill: #da1b21;"/>
    <polygon points="556.25 250 462.5 0 500 0 578.13 212.5 656.25 0 693.75 0 600 250 556.25 250" style="fill: #2b4e9d;"/>
    <path d="M118.58,250c-23.41,0-44.05-5.18-61.9-15.54-17.62-10.59-31.53-25.21-41.73-43.85C4.98,171.73,0,149.86,0,125s4.98-46.27,14.95-64.92c10.2-18.88,24.11-33.61,41.73-44.2C74.53,5.29,95.16,0,118.58,0s44.74,5.29,62.59,15.88c17.85,10.59,31.64,25.32,41.38,44.2,9.97,18.65,14.95,40.29,14.95,64.92s-4.98,46.73-14.95,65.61c-9.74,18.65-23.53,33.26-41.38,43.85-17.85,10.36-38.71,15.54-62.59,15.54ZM118.92,219.27c16.69,0,31.3-3.8,43.81-11.39,12.52-7.6,22.14-18.42,28.86-32.46,6.95-14.04,10.43-30.85,10.43-50.41s-3.48-36.37-10.43-50.41c-6.72-14.04-16.34-24.75-28.86-32.11-12.52-7.6-27.12-11.39-43.81-11.39s-31.3,3.8-43.81,11.39c-12.52,7.37-22.25,18.07-29.21,32.11-6.95,14.04-10.43,30.85-10.43,50.41s3.48,36.37,10.43,50.41c6.95,14.04,16.69,24.86,29.21,32.46,12.52,7.6,27.12,11.39,43.81,11.39Z" style="fill: #da1b21;"/>
    <polygon points="725 250 725 0 768.75 0 850 150 931.25 0 975 0 975 250 937.5 250 937.5 68.75 868.75 193.75 831.25 193.75 762.5 68.75 762.5 250 725 250" style="fill: #2b4e9d;"/>
  </g>
</svg>