<?xml version="1.0" encoding="UTF-8"?>
<svg id="a" data-name="Vrstva 1" xmlns="http://www.w3.org/2000/svg" width="975" height="250" viewBox="0 0 975 250">
  <path d="M387.5,0l93.75,250h-37.5l-78.12-212.5-78.12,212.5h-37.5L343.75,0h43.75Z" style="fill: #191a2e;"/>
  <path d="M556.25,250L462.5,0h37.5l78.13,212.5L656.25,0h37.5l-93.75,250h-43.75Z" style="fill: #191a2e;"/>
  <path d="M118.58,250c-23.41,0-44.05-5.18-61.9-15.54-17.62-10.59-31.53-25.21-41.73-43.85C4.98,171.73,0,149.86,0,125s4.98-46.27,14.95-64.92c10.2-18.88,24.11-33.61,41.73-44.2C74.53,5.29,95.16,0,118.58,0s44.74,5.29,62.59,15.88c17.85,10.59,31.64,25.32,41.38,44.2,9.97,18.65,14.95,40.29,14.95,64.92s-4.98,46.73-14.95,65.61c-9.74,18.65-23.53,33.26-41.38,43.85-17.85,10.36-38.71,15.54-62.59,15.54ZM118.92,219.27c16.69,0,31.3-3.8,43.81-11.39,12.52-7.6,22.14-18.42,28.86-32.46,6.95-14.04,10.43-30.85,10.43-50.41s-3.48-36.37-10.43-50.41c-6.72-14.04-16.34-24.75-28.86-32.11-12.52-7.6-27.12-11.39-43.81-11.39s-31.3,3.8-43.81,11.39c-12.52,7.37-22.25,18.07-29.21,32.11-6.95,14.04-10.43,30.85-10.43,50.41s3.48,36.37,10.43,50.41c6.95,14.04,16.69,24.86,29.21,32.46,12.52,7.6,27.12,11.39,43.81,11.39Z" style="fill: #191a2e;"/>
  <path d="M725,250V0h43.75l81.25,150L931.25,0h43.75v250h-37.5V68.75l-68.75,125h-37.5l-68.75-125v181.25h-37.5Z" style="fill: #191a2e;"/>
</svg>