<?xml version="1.0" encoding="UTF-8"?>
<svg id="b" data-name="Vrstva 2" xmlns="http://www.w3.org/2000/svg" viewBox="0 0 70.87 42.52">
  <g id="c" data-name="Vrstva 1">
    <g>
      <polygon points="28.35 15.59 0 26.22 0 21.97 24.09 13.11 0 4.25 0 0 28.35 10.63 28.35 15.59" style="fill: #191a2e;"/>
      <polygon points="42.52 10.63 70.87 0 70.87 4.25 46.77 13.11 70.87 21.97 70.87 26.22 42.52 15.59 42.52 10.63" style="fill: #191a2e;"/>
      <path d="M25.99,42.52c0-2.22.4-4.13,1.19-5.72.76-1.59,1.85-2.82,3.27-3.68s3.07-1.29,4.97-1.29,3.54.43,4.96,1.29c1.42.86,2.53,2.09,3.32,3.68.78,1.59,1.18,3.5,1.18,5.72h4.02c0-2.82-.57-5.3-1.7-7.44-1.15-2.12-2.73-3.77-4.73-4.97-2.02-1.18-4.36-1.76-7.01-1.76s-5.08.58-7.1,1.76c-2.03,1.2-3.59,2.85-4.69,4.97-1.13,2.14-1.7,4.62-1.7,7.44h4.02Z" style="fill: #191a2e;"/>
    </g>
  </g>
</svg>