<?xml version="1.0" encoding="UTF-8"?>
<svg id="b" data-name="Vrstva 2" xmlns="http://www.w3.org/2000/svg" viewBox="0 0 70.87 37.35">
  <g id="c" data-name="Vrstva 1">
    <g>
      <polygon points="28.35 4.25 19.76 7.41 28.35 10.63 28.35 14.67 24.09 13.11 14.18 9.46 4.26 13.11 0 14.67 0 10.63 8.59 7.41 0 4.25 0 0 14.18 5.32 28.35 0 28.35 4.25" style="fill: #2b4e9d;"/>
      <path d="M44.88,23.17c0,2.22-.4,4.13-1.19,5.72-.76,1.59-1.85,2.82-3.27,3.68s-3.07,1.29-4.97,1.29-3.54-.43-4.96-1.29c-1.42-.86-2.53-2.09-3.32-3.68-.78-1.59-1.18-3.5-1.18-5.72h-4.02c0,2.82.57,5.3,1.7,7.44,1.15,2.12,2.73,3.77,4.73,4.97,2.02,1.18,4.36,1.76,7.01,1.76s5.08-.58,7.1-1.76c2.03-1.2,3.59-2.85,4.69-4.97,1.13-2.14,1.7-4.62,1.7-7.44h-4.02Z" style="fill: #da1b21;"/>
      <polygon points="70.87 4.25 62.28 7.41 70.87 10.63 70.87 14.67 66.61 13.11 56.7 9.46 46.78 13.11 42.52 14.67 42.52 10.63 51.11 7.41 42.52 4.25 42.52 0 56.7 5.32 70.87 0 70.87 4.25" style="fill: #2b4e9d;"/>
    </g>
  </g>
</svg>