<?xml version="1.0" encoding="UTF-8"?>
<svg id="b" data-name="Vrstva 2" xmlns="http://www.w3.org/2000/svg" viewBox="0 0 70.87 56.69">
  <g id="c" data-name="Vrstva 1">
    <g>
      <polygon points="28.35 15.59 0 26.22 0 21.97 24.09 13.11 0 4.25 0 0 28.35 10.63 28.35 15.59" style="fill: #191a2e;"/>
      <polygon points="42.52 10.63 70.87 0 70.87 4.25 46.77 13.11 70.87 21.97 70.87 26.22 42.52 15.59 42.52 10.63" style="fill: #191a2e;"/>
      <path d="M35.41,56.69c-2.65,0-4.99-.59-7.02-1.76-2-1.2-3.57-2.86-4.73-4.97-1.13-2.14-1.7-4.62-1.7-7.44s.57-5.25,1.7-7.36c1.16-2.14,2.73-3.81,4.73-5.01,2.02-1.2,4.36-1.8,7.02-1.8s5.07.6,7.1,1.8c2.02,1.2,3.59,2.87,4.69,5.01,1.13,2.11,1.7,4.57,1.7,7.36s-.57,5.3-1.7,7.44c-1.1,2.11-2.67,3.77-4.69,4.97-2.02,1.17-4.39,1.76-7.1,1.76ZM35.45,53.21c1.89,0,3.55-.43,4.97-1.29,1.42-.86,2.51-2.09,3.27-3.68.79-1.59,1.18-3.5,1.18-5.72s-.39-4.12-1.18-5.72c-.76-1.59-1.85-2.81-3.27-3.64-1.42-.86-3.08-1.29-4.97-1.29s-3.55.43-4.97,1.29c-1.42.84-2.52,2.05-3.31,3.64-.79,1.59-1.18,3.5-1.18,5.72s.39,4.12,1.18,5.72c.79,1.59,1.89,2.82,3.31,3.68,1.42.86,3.08,1.29,4.97,1.29Z" style="fill: #191a2e;"/>
    </g>
  </g>
</svg>