<?xml version="1.0" encoding="UTF-8"?>
<svg id="b" data-name="Vrstva 2" xmlns="http://www.w3.org/2000/svg" viewBox="0 0 70.87 36.85">
  <g id="c" data-name="Vrstva 1">
    <g>
      <polygon points="49.61 27.49 49.61 31.64 39.69 35.29 35.43 36.85 31.17 35.29 21.26 31.64 21.26 27.5 35.43 32.81 49.61 27.49" style="fill: #da1b21;"/>
      <path d="M4.02,14.17c0-2.22.4-4.13,1.19-5.72.76-1.59,1.85-2.82,3.27-3.68s3.07-1.29,4.97-1.29,3.54.43,4.96,1.29c1.42.86,2.53,2.09,3.32,3.68.78,1.59,1.18,3.5,1.18,5.72h4.02c0-2.82-.57-5.3-1.7-7.44-1.15-2.12-2.73-3.77-4.73-4.97-2.02-1.18-4.36-1.76-7.01-1.76s-5.08.58-7.1,1.76c-2.03,1.2-3.59,2.85-4.69,4.97-1.13,2.14-1.7,4.62-1.7,7.44h4.02Z" style="fill: #2b4e9d;"/>
      <path d="M47.96,14.17c0-2.22.4-4.13,1.19-5.72.76-1.59,1.85-2.82,3.27-3.68s3.07-1.29,4.97-1.29,3.54.43,4.96,1.29c1.42.86,2.53,2.09,3.32,3.68.78,1.59,1.18,3.5,1.18,5.72h4.02c0-2.82-.57-5.3-1.7-7.44-1.15-2.12-2.73-3.77-4.73-4.97-2.02-1.18-4.36-1.76-7.01-1.76s-5.08.58-7.1,1.76c-2.03,1.2-3.59,2.85-4.69,4.97-1.13,2.14-1.7,4.62-1.7,7.44h4.02Z" style="fill: #2b4e9d;"/>
    </g>
  </g>
</svg>